<svg xmlns="http://www.w3.org/2000/svg" viewBox="0 0 800 600" role="img" aria-label="La arboleda y el parque de la finca">
  <!-- Placeholder: reemplazar por foto real de @fincalajosefinaeventos -->
  <defs>
    <linearGradient id="dia" x1="0" y1="0" x2="0" y2="1">
      <stop offset="0" stop-color="#F7F3EE"/>
      <stop offset="1" stop-color="#E6D5B8"/>
    </linearGradient>
    <linearGradient id="pasto" x1="0" y1="0" x2="0" y2="1">
      <stop offset="0" stop-color="#7C8A62"/>
      <stop offset="1" stop-color="#5D6A4A"/>
    </linearGradient>
  </defs>
  <rect width="800" height="430" fill="url(#dia)"/>
  <rect y="430" width="800" height="170" fill="url(#pasto)"/>
  <!-- Camino al altar -->
  <path d="M340 600 L400 430 L460 600 Z" fill="#E0CDAF"/>
  <!-- Arco de ceremonia -->
  <path d="M400 430 m-70 0 a70 70 0 0 1 140 0" fill="none" stroke="#B99B5F" stroke-width="7"/>
  <line x1="330" y1="430" x2="330" y2="360" stroke="#B99B5F" stroke-width="7"/>
  <line x1="470" y1="430" x2="470" y2="360" stroke="#B99B5F" stroke-width="7"/>
  <g fill="#61152A" opacity="0.85">
    <circle cx="330" cy="360" r="14"/>
    <circle cx="470" cy="360" r="14"/>
    <circle cx="352" cy="342" r="9"/>
    <circle cx="448" cy="342" r="9"/>
    <circle cx="400" cy="330" r="11"/>
  </g>
  <!-- Árboles -->
  <g>
    <rect x="86" y="330" width="16" height="105" fill="#5A4632"/>
    <circle cx="94" cy="270" r="80" fill="#6F7D55"/>
    <circle cx="52" cy="310" r="52" fill="#7C8A62"/>
    <rect x="696" y="320" width="16" height="115" fill="#5A4632"/>
    <circle cx="704" cy="258" r="86" fill="#6F7D55"/>
    <circle cx="752" cy="305" r="54" fill="#7C8A62"/>
  </g>
  <!-- Sillas -->
  <g fill="#F7F3EE" opacity="0.9">
    <rect x="230" y="470" width="26" height="34" rx="3"/>
    <rect x="270" y="480" width="26" height="36" rx="3"/>
    <rect x="196" y="484" width="26" height="38" rx="3"/>
    <rect x="544" y="470" width="26" height="34" rx="3"/>
    <rect x="504" y="480" width="26" height="36" rx="3"/>
    <rect x="578" y="484" width="26" height="38" rx="3"/>
  </g>
</svg>
