<svg xmlns="http://www.w3.org/2000/svg" viewBox="0 0 1600 1000" preserveAspectRatio="xMidYMid slice">
<defs>
  <radialGradient id="fondo" cx="50%" cy="38%" r="85%">
    <stop offset="0%" stop-color="#61152A"/>
    <stop offset="55%" stop-color="#4A0F1E"/>
    <stop offset="100%" stop-color="#2B0811"/>
  </radialGradient>
  <radialGradient id="brillo1" cx="50%" cy="50%" r="50%">
    <stop offset="0%" stop-color="#B99B5F" stop-opacity="0.32"/>
    <stop offset="100%" stop-color="#B99B5F" stop-opacity="0"/>
  </radialGradient>
  <radialGradient id="brillo2" cx="50%" cy="50%" r="50%">
    <stop offset="0%" stop-color="#5D6A4A" stop-opacity="0.4"/>
    <stop offset="100%" stop-color="#5D6A4A" stop-opacity="0"/>
  </radialGradient>
  <radialGradient id="brillo3" cx="50%" cy="50%" r="50%">
    <stop offset="0%" stop-color="#8A2C42" stop-opacity="0.55"/>
    <stop offset="100%" stop-color="#8A2C42" stop-opacity="0"/>
  </radialGradient>
</defs>
<rect width="1600" height="1000" fill="url(#fondo)"/>
<ellipse cx="270" cy="180" rx="480" ry="380" fill="url(#brillo3)"/>
<ellipse cx="1380" cy="820" rx="520" ry="420" fill="url(#brillo2)"/>
<ellipse cx="1250" cy="160" rx="420" ry="330" fill="url(#brillo1)"/>
<ellipse cx="420" cy="900" rx="460" ry="330" fill="url(#brillo1)" opacity="0.6"/>
<g transform="translate(110 980) scale(1.7) rotate(-12)" stroke="#E6D5B8" stroke-width="1.4" fill="none" opacity="0.34" stroke-linecap="round">
  <path d="M0 0 C30 -40, 45 -90, 40 -150"/>
  <path d="M12 -45 C30 -55, 48 -52, 60 -38 C45 -28, 22 -32, 12 -45 Z"/>
  <path d="M26 -95 C10 -108, 5 -125, 12 -142 C28 -132, 34 -112, 26 -95 Z"/>
  <circle cx="40" cy="-150" r="10"/><circle cx="40" cy="-150" r="4"/>
  <circle cx="58" cy="-128" r="6"/>
  <circle cx="20" cy="-160" r="5"/>
</g>
<g transform="translate(240 1010) scale(1.25) rotate(14)" stroke="#B99B5F" stroke-width="1.4" fill="none" opacity="0.3" stroke-linecap="round">
  <path d="M0 0 C30 -40, 45 -90, 40 -150"/>
  <path d="M12 -45 C30 -55, 48 -52, 60 -38 C45 -28, 22 -32, 12 -45 Z"/>
  <path d="M26 -95 C10 -108, 5 -125, 12 -142 C28 -132, 34 -112, 26 -95 Z"/>
  <circle cx="40" cy="-150" r="10"/><circle cx="40" cy="-150" r="4"/>
  <circle cx="58" cy="-128" r="6"/>
  <circle cx="20" cy="-160" r="5"/>
</g>
<g transform="translate(1490 980) scale(1.8) rotate(10)" stroke="#E6D5B8" stroke-width="1.4" fill="none" opacity="0.34" stroke-linecap="round">
  <path d="M0 0 C30 -40, 45 -90, 40 -150"/>
  <path d="M12 -45 C30 -55, 48 -52, 60 -38 C45 -28, 22 -32, 12 -45 Z"/>
  <path d="M26 -95 C10 -108, 5 -125, 12 -142 C28 -132, 34 -112, 26 -95 Z"/>
  <circle cx="40" cy="-150" r="10"/><circle cx="40" cy="-150" r="4"/>
  <circle cx="58" cy="-128" r="6"/>
  <circle cx="20" cy="-160" r="5"/>
</g>
<g transform="translate(1370 1010) scale(1.3) rotate(-16)" stroke="#B99B5F" stroke-width="1.4" fill="none" opacity="0.3" stroke-linecap="round">
  <path d="M0 0 C30 -40, 45 -90, 40 -150"/>
  <path d="M12 -45 C30 -55, 48 -52, 60 -38 C45 -28, 22 -32, 12 -45 Z"/>
  <path d="M26 -95 C10 -108, 5 -125, 12 -142 C28 -132, 34 -112, 26 -95 Z"/>
  <circle cx="40" cy="-150" r="10"/><circle cx="40" cy="-150" r="4"/>
  <circle cx="58" cy="-128" r="6"/>
  <circle cx="20" cy="-160" r="5"/>
</g>
<g transform="translate(1560 60) scale(1.5) rotate(158)" stroke="#E6D5B8" stroke-width="1.4" fill="none" opacity="0.26" stroke-linecap="round">
  <path d="M0 0 C30 -40, 45 -90, 40 -150"/>
  <path d="M12 -45 C30 -55, 48 -52, 60 -38 C45 -28, 22 -32, 12 -45 Z"/>
  <path d="M26 -95 C10 -108, 5 -125, 12 -142 C28 -132, 34 -112, 26 -95 Z"/>
  <circle cx="40" cy="-150" r="10"/><circle cx="40" cy="-150" r="4"/>
  <circle cx="58" cy="-128" r="6"/>
  <circle cx="20" cy="-160" r="5"/>
</g>
<g transform="translate(60 40) scale(1.4) rotate(-158)" stroke="#B99B5F" stroke-width="1.4" fill="none" opacity="0.24" stroke-linecap="round">
  <path d="M0 0 C30 -40, 45 -90, 40 -150"/>
  <path d="M12 -45 C30 -55, 48 -52, 60 -38 C45 -28, 22 -32, 12 -45 Z"/>
  <path d="M26 -95 C10 -108, 5 -125, 12 -142 C28 -132, 34 -112, 26 -95 Z"/>
  <circle cx="40" cy="-150" r="10"/><circle cx="40" cy="-150" r="4"/>
  <circle cx="58" cy="-128" r="6"/>
  <circle cx="20" cy="-160" r="5"/>
</g>
</svg>